PathFileType	4	(X/Y/Z)	C:/Users/beibeiliu/ov580/test_trc/User1\sequence.21_training_dense_left.trc
DataRate	CameraRate	NumFrames	NumMarkers	Units	OrigDataRate	OrigDataStartFrame	OrigNumFrames
120	120	7	19	mm	120	246	280
Frame#	Time	ThumbCMC			ThumbMCP			ThumbIP			ThumbTip			IndexMCP			IndexPIP			IndexTip			MiddleMCP			MiddlePIP			MiddleTip			RingMCP			RingPIP			RingTip			PinkyMCP			PinkyPIP			PinkyTip			BackHand1			BackHand2			BackHand3	
		X0	Y0	Z0	X1	Y1	Z1	X2	Y2	Z2	X3	Y3	Z3	X4	Y4	Z4	X5	Y5	Z5	X6	Y6	Z6	X7	Y7	Z7	X8	Y8	Z8	X9	Y9	Z9	X10	Y10	Z10	X11	Y11	Z11	X12	Y12	Z12	X13	Y13	Z13	X14	Y14	Z14	X15	Y15	Z15	X16	Y16	Z16	X17	Y17	Z17	X18	Y18	Z18	
245	2.04167	-231.268	88.8046	14.9738	-231.281	100.199	-27.1983	-214.678	90.3343	-47.9706	-188.381	75.16	-50.8049	-241.468	44.4491	-62.7966	-240.847	35.7921	-86.1381	-240.789	25.8641	-110.388	-227.487	26.8659	-65.652	-224.086	19.6491	-92.2728	-222.714	9.51717	-120.516	-209.539	17.9029	-61.3779	-208.35	10.8568	-88.2711	-206.972	5.05434	-109.689	-183.971	13.7201	-42.5172	-187.993	10.8329	-61.9933	-194.854	1.30708	-83.9154	-208.305	22.8991	-4.36777	-207.57	28.2168	29.3413	-235.736	48.5803	11.0366	
246	2.05	-232.131	87.7719	12.7487	-231.487	96.3092	-26.1963	-215.407	87.3469	-45.3072	-188.705	72.7949	-50.2724	-240.669	41.2776	-63.8198	-241.161	32.0247	-87.3869	-235.152	20.8847	-110.247	-226.691	23.2426	-67.0515	-225.137	16.7798	-95.627	-225.569	10.0326	-120.443	-204.673	12.1024	-59.0969	-210.343	9.74377	-88.2951	-206.919	1.39253	-112.124	-185.74	12.9706	-45.8505	-187.938	7.57039	-66.1735	-192.979	0.904677	-82.3383	-209.688	22.1239	-4.96986	-205.304	27.4979	31.484	-233.951	45.1249	7.60093	
247	2.05833	-226.776	82.6634	12.5188	-226.166	94.3028	-22.2404	-210.74	80.5124	-47.745	-186.049	69.3169	-51.2245	-240.363	40.1574	-62.5715	-237.484	29.4809	-85.5333	-233.655	19.3991	-109.585	-222.293	20.0628	-67.5026	-221.487	14.6015	-93.1004	-218.847	3.79323	-123.67	-201.847	9.59217	-58.3554	-201.875	2.14363	-86.2357	-202.276	-3.97699	-111.76	-180.326	8.09904	-42.7312	-183.678	4.33922	-63.4776	-191.62	-4.23806	-83.1386	-203.155	16.5849	-3.51894	-203.355	23.0173	30.196	-228.948	41.7304	12.596	
248	2.06667	-222.954	81.6855	12.3864	-221.505	91.4431	-23.2148	-205.855	80.3323	-46.6384	-178.444	63.8881	-51.2892	-230.007	35.8758	-59.5322	-229.885	25.344	-85.3995	-222.442	12.8112	-108.935	-212.778	14.3562	-65.1065	-215.068	9.70006	-94.5037	-211.529	0.710199	-119.242	-195.914	7.03667	-57.1424	-197.538	0.904676	-84.4012	-196.569	-5.58733	-106.785	-173.914	5.00445	-39.8419	-174.986	-0.5891	-61.0459	-181.152	-12.3624	-83.7738	-199.306	16.1719	-3.09958	-200.473	20.5676	31.8997	-222.535	40.6512	11.6539	
249	2.075	-217.102	78.1211	10.6344	-214.271	87.6994	-25.1	-196.485	73.3633	-49.781	-169.976	61.5887	-53.2492	-221.89	30.3954	-62.9313	-219.201	22.1556	-83.4328	-213.792	11.1142	-107.758	-204.734	12.5473	-63.7638	-201.874	4.68303	-90.4296	-197.575	-7.02587	-118.666	-186.469	2.81086	-56.0591	-186.763	-5.14811	-84.2972	-185.275	-12.5645	-109.577	-167.397	1.27816	-39.2119	-165.149	-5.75763	-56.7572	-170.9	-16.7107	-78.1601	-191.035	9.53229	0.227051	-193.129	19.8836	32.6729	-219.765	38.8233	12.7193	
250	2.08333	-207.251	72.6522	10.6635	-205.233	84.8571	-27.0501	-186.844	69.2965	-48.4589	-162.976	57.9863	-50.7253	-216.136	29.5533	-62.0876	-208.547	16.1016	-82.026	-202.872	2.00534	-109.806	-195.694	6.0847	-66.8062	-194.412	1.51459	-91.5322	-188.676	-10.8398	-115.569	-179.579	0.793277	-54.6708	-174.787	-10.544	-80.1866	-174.582	-16.0498	-103.625	-159.774	-0.723187	-35.3846	-156.736	-8.58021	-55.311	-162.149	-19.0662	-74.2706	-187.971	10.289	1.64995	-188.184	17.6893	34.1669	-210.837	35.3349	12.1833	
251	2.09167	-203.887	74.2795	12.1501	-198.756	83.3711	-25.6269	-179.288	66.7502	-46.6351	-155.006	50.8194	-45.8253	-206.339	24.1827	-62.7943	-201.552	12.9089	-84.5471	-195.571	1.51663	-106.24	-190.12	4.90857	-65.0392	-185.239	-3.68602	-88.2605	-181.046	-14.8075	-115.228	-171.807	-5.00966	-55.5693	-170.389	-12.1706	-78.7953	-165.433	-21.2156	-103.22	-152.584	-2.40569	-32.5937	-150.941	-11.6273	-52.4687	-156.681	-22.9135	-76.08	-182.462	7.46903	0.651871	-183.846	14.2182	36.0596	-205.385	29.4418	11.6124	
